/* XPM */
static const char *bitcoin32_xpm[] = {
/* columns rows colors chars-per-pixel */
"32 32 345 2",
"   c Black",
"l  c #AB8A1D",
"R. c #F4DD87",
"k. c #D9BF83",
"JX c #DCC988",
"%o c #9F8628",
"C  c #B7942B",
"S. c #EEE1A8",
"eX c #DFCDA4",
"~  c #E4BE49",
"Lo c #D3C9A5",
"f  c #B19846",
"iX c #F4E9BD",
"'X c #E8DFBC",
"Z  c #A77E00",
"s. c #B37F00",
"[X c #C6AE66",
":  c #7A5700",
"Fo c #836607",
"p. c #F0D778",
"]  c #F1EBD5",
"!  c #E1C976",
"H. c #FFE280",
"0. c #EEEADE",
"QX c #BF951E",
"C. c #D8BD80",
"2. c #F1EBE2",
"5o c #F4F2E5",
"cX c #F4F2E7",
"W. c #FFE58F",
"v. c #F3DE90",
">. c #F2C435",
"S  c #C29F33",
"&. c #D8C395",
"*o c #AA9139",
"So c #9B833F",
";X c #FFEBAD",
"+o c #B39A46",
"`  c #EFC951",
"AX c #E4D9AF",
"oo c #B39D4C",
"y. c #F0E6B8",
"e. c #C8AA54",
"9X c #F3EAC0",
"ZX c #EAE4BF",
"zo c #AA9458",
"OX c #BB8C00",
"4  c #AD955A",
"*  c #B0995C",
"UX c #AF7900",
",. c #EDE5C8",
"#. c #AC7200",
"x  c #EDE5CA",
"Bo c #7F6000",
"co c #7C5C00",
"-  c #7C5900",
"bo c #795800",
"I. c #D1B66F",
",  c #704900",
"P  c #C49815",
"B  c #AF8B17",
"8o c #917215",
"p  c #9D7917",
"Ho c #8B7018",
"9  c #A0801C",
"po c #977D1D",
"r  c #A38723",
"N. c #C49829",
"=X c #F5E098",
"T  c #D6B039",
"(X c #DDCF9A",
">X c #C49E38",
"=o c #AC933E",
"`X c #E3D7AB",
"$o c #B29B48",
"q. c #E6D8AD",
"~X c #C49E4E",
"zX c #F2E5B6",
"E  c #E9DFB5",
"|X c #BBA452",
"-o c #B29B56",
"@X c #D0B15F",
"{  c #B48200",
":X c #EFEAC7",
"l. c #B47F00",
"BX c #EFE7C8",
"jX c #FEEFCC",
";  c #815F00",
"3  c #7E5800",
"o. c #A26400",
"yo c #785600",
"7. c #CDB06A",
"3. c #ECE3CE",
")  c #E2C671",
"Mo c #724E00",
"Vo c #6C4900",
"Q. c #F2EBD2",
"4X c #D0B472",
"m. c #F5EFDF",
"dX c #F5EFE0",
"EX c #CAA978",
"5  c #C4B07C",
"2X c #C39C38",
"'  c #EEDFA8",
"=. c #F0C94D",
"9o c #AB9446",
":. c #FCD356",
"sX c #EEE5B9",
"x. c #FFDA62",
"hX c #EEE8BF",
"i. c #FFDA63",
"yX c #EEE8C2",
"HX c #EBE4C2",
"1X c #BC8C00",
"<o c #E8E3C4",
"rX c #B98800",
"7  c #926F00",
"U. c #AD7500",
" X c #A76700",
"ko c #775700",
"D. c #FFDD73",
"RX c #9E6100",
"b. c #FFDD74",
"!X c #BC8F0C",
"[  c #9E5E00",
"to c #BDAC6D",
"}X c #C6AF6D",
"g. c #9E5800",
"w  c #EEE8D3",
"i  c #C0AA71",
"D  c #B99415",
"@  c #896C0E",
"H  c #B9941B",
"#X c #BF961C",
"z. c #F0DB85",
"]X c #D2BC7F",
"YX c #BF961F",
"gX c #D8BE80",
",o c #987A1B",
"]. c #F6DD8C",
"mX c #D8BE86",
"0  c #C6B585",
";o c #A18626",
"!. c #C29A29",
"e  c #C9B689",
"MX c #E7D592",
"^  c #DAB438",
"{. c #FFE99E",
"*X c #FFE99F",
"8X c #F3E5A9",
"-X c #F3E5AA",
"CX c #E7D8A8",
"7X c #FFECAE",
"(. c #DECFA9",
"o  c #A1894A",
"<X c #CBAC53",
"Co c #A79153",
"uX c #FFF2C1",
"FX c #BB8A00",
"M  c #A68000",
"SX c #B88600",
"~. c #B58200",
"A. c #B57F00",
"M. c #B27E00",
"wX c #E7D8C4",
"y  c #917001",
"6. c #AF7700",
" . c #AC7300",
"vo c #7F6100",
".X c #A36700",
"h  c #9A7907",
"B. c #F0EACE",
"lX c #F0EAD1",
"=  c #764C00",
"1  c #734B00",
"mo c #704A00",
"`. c #F0EAD2",
"j  c #9A7613",
"^X c #D4C17E",
"TX c #C1981D",
"6o c #977B1B",
"-. c #E5B927",
"P. c #D7BF82",
"a. c #F6F2E5",
"_X c #D1BD86",
"X  c #B6A281",
"tX c #DAC088",
"K  c #CAA42D",
"fX c #C4992A",
"L. c #C4992B",
"eo c #977E28",
"N  c #B8952C",
"u. c #F2E099",
"/X c #DDCA96",
"_. c #C19B3A",
"R  c #E6D69F",
">o c #A68F41",
"J. c #EFE8BF",
"XX c #BD8C00",
"j. c #BA8800",
"O. c #C7A65F",
"pX c #EFEBC8",
"z  c #9C7500",
"k  c #997400",
"$. c #AE7800",
"$X c #AE7200",
"lo c #B8A465",
"Oo c #BEA667",
"&X c #EFEBD1",
">  c #724C00",
"9. c #D0B26D",
"<  c #724900",
"U  c #D6C075",
"ro c #937816",
"V  c #B18E1B",
"uo c #8D7318",
"Ao c #B29F7A",
"0o c #FBF8E6",
"A  c #BA9722",
"G. c #F4DF8B",
"h. c #D3B983",
"Xo c #D3C289",
"fo c #C4B486",
"7o c #967C25",
"E. c #F4DF92",
"I  c #CCA631",
"{X c #D6C993",
"xX c #E8D896",
"r. c #F0C43A",
"[. c #F4E29C",
"GX c #C3A03B",
"/  c #DBB742",
"n. c #F1E1A4",
"3o c #A88E41",
"Zo c #D6CCA7",
"f. c #E5D7AD",
"5X c #E5D7AE",
"@o c #B49E4C",
"qo c #AE964B",
"t. c #FCD458",
"). c #B98600",
"so c #E8E1C4",
"X. c #B38100",
"}  c #B37E00",
"n  c #987200",
"@. c #B07A00",
"Z. c #AD7900",
"kX c #F1EDCB",
"io c #806100",
"#o c #BDA768",
"8  c #835C00",
"t  c #835900",
"6X c #F1EDD1",
"xo c #6B4B00",
".o c #C6B06D",
"T. c #FFE17D",
"c  c #F1EDD9",
"4o c #957714",
"wo c #8F6F12",
":o c #957716",
"3X c #D5B87A",
"Ko c #B19D79",
"2o c #987B1B",
"b  c #AA8A1E",
"Do c #8C711A",
"F  c #BC9621",
"V. c #D2B780",
"F. c #F3DD8A",
"ao c #C3B283",
"m  c #F4F4E9",
"%  c #B4A17F",
"go c #9B8224",
"O  c #927621",
"'. c #FFE790",
"bX c #C29B2C",
"W  c #D7AE33",
"LX c #DECA97",
"KX c #DBCF99",
"c. c #F3E09D",
"+X c #C59F39",
"DX c #C8A341",
"(  c #E3BE48",
"Jo c #9B823D",
"&  c #DBD2AE",
"NX c #F0E5B7",
" o c #BCA554",
"*. c #EDE1B8",
"&o c #B39C56",
"0X c #FFF3C0",
"qX c #F0E8C0",
"8. c #BB8B00",
"<. c #B88400",
"oX c #CEB162",
")X c #C5AE63",
"vX c #B58000",
"K. c #B27F00",
";. c #F0E8C7",
"v  c #9D7800",
".. c #AC7400",
"IX c #EDE7CA",
"do c #EAE3C9",
"g  c #916B00",
"WX c #BB8E08",
"%X c #B27F04",
"+. c #AC7100",
"aX c #FFF0CC",
"ho c #7F5F00",
"Go c #826605",
"6  c #7C5500",
"%. c #BE9518",
"J  c #DAC783",
"_  c #E5BA2B",
"VX c #DDC886",
"#  c #917721",
"/. c #DAC188",
"nX c #D4B986",
"1. c #C19928",
"d. c #C49A2B",
"G  c #C19F31",
"d  c #AF9343",
"$  c #A08849",
".  c #E0D5B7",
"^. c #CDAF5A",
",X c #B78800",
"|. c #B48100",
"s  c #936D00",
"|  c #AB7200",
"a  c #997805",
"2  c #815E00",
"No c #785800",
"Y. c #F2EAD0",
"}. c #F2EDD1",
"u  c #7E5400",
"q  c #ECE5CF",
"no c #725000",
"1o c #EFE9D1",
"w. c #B7880C",
"Y  c #CCA114",
"L  c #C39814",
"Q  c #CCA118",
"+  c #8A6D0E",
"PX c #D3C078",
"4. c #EFE9D9",
"5. c #BD9018",
"jo c #8D7416",
/* pixels */
"                      . X o O + @ # $ % &                       ",
"                  * = - ; : > , < 1 : 2 3 1 4                   ",
"              5 6 7 8 9 0 q         w e r t y u i               ",
"            p a s d                         f g h j             ",
"          k l z x                             c v b n m         ",
"        M N B                                     V C Z         ",
"      A S D                                         F G H       ",
"    J K L                                             P I U     ",
"    Y T R                                             E W Q     ",
"  ! ~ ^                                                 / ( )   ",
"  _ ` '       ] [ { } |  ...X.o.  O.+.X.@.#.$.%.&.      *.=.-.  ",
";.:.>.          ,.<.1.2.3.4.5.6.    7.8.9.0.q.w.<.e.      r.t.y.",
"u.i.p.          a.s.d.      f.g.    h.j.k.      l.#.      z.x.c.",
"v.b.n.          m.M.N.        B.    V.j.C.      Z.A.      S.D.F.",
"G.H.J.          m.K.L.    P.I.      V.j.C.      U. .      Y.T.R.",
"E.W.Q.          m.K.!.    ~.^.      V.j./.    (.)._.      `.'.].",
"[.{.}.          m.|.8. X.XXXoX      V.OX+X@X#X$X%X        &X*X=X",
"-X;X:X          m.M.>X    ,X<X      V.1X2X3X4X5X          6X7X8X",
"9X0XqX          m.K.N.    wXeX      V.rXtX                yXuXiX",
"pXaXsX          dXM.fX              V.j.gX                hXjXkX",
"lXzXxX          cXvXbX              nXrXmX                MXNXBX",
"  VXCXZX        AXSXs.              DXFXGX              HXCXJX  ",
"  KXLXPX      IXUXYXTXRX          EXWXQX!X~X            ^X/X(X  ",
"    )X_X`X                                            'X]X[X    ",
"    {X}X|X                                             o.oXo    ",
"      ooOo+o                                        @o#o$o      ",
"        %o&o*o                                    =o-o;o        ",
"          :o>o,o<o                            1o2o3o4o5o        ",
"            6o7o8o9o0o                      qowoeoro            ",
"              toyouoiopoaoso        dofogohojokolo              ",
"                  zoxocovobonomomoMoNoBocoVoCo                  ",
"                      ZoAoSoDoFoGoHoJoKoLo                      "
};
