/* XPM */
static const char *bitcoin16_xpm[] = {
/* columns rows colors chars-per-pixel */
"16 16 110 2",
"   c Black",
"G  c #F2EAD3",
"#. c #F2EDDF",
"@. c #C3B47F",
"/  c #C8AF63",
"e  c #C1991E",
"V  c #D0B14C",
"(  c #DCC592",
"=. c #B29F62",
"d  c #FFFFFF",
"u  c #F3DC8F",
"|  c #D0C08A",
"R  c #EEE4BD",
"!  c #E9DDB3",
"j  c #A26200",
"U  c #F3EBCF",
"r  c #BA8C06",
"h  c #F3EBD2",
"3  c #D3BB6B",
"l  c #FBDB75",
"]  c #C9B065",
"t  c #D8BF76",
"&  c #F6F2E5",
")  c #D8BF89",
"y  c #F4DD91",
"4  c #CFA00A",
"Y  c #F9F9E9",
"k  c #F9F3D8",
":. c #724E00",
"n  c #C0971E",
"I  c #C09720",
"F  c #C09722",
".  c #B6A166",
"C  c #CAA543",
"v  c #E1CE97",
";  c #B2922A",
"M  c #A76B00",
"Z  c #C19824",
"P  c #E6D5AF",
"s  c #E6D5B0",
"K  c #FAF4E7",
"$  c #C6B47A",
",  c #B08F24",
"Q  c #BA8B00",
"L  c #CEAD43",
"$. c #F3F0E2",
"x  c #CEAD44",
"*. c #B5A261",
"+. c #795700",
".. c #AE984B",
"9  c #BD9212",
"g  c #C29924",
"<  c #D6BE73",
"X. c #B19C50",
"-. c #896D17",
"%  c #F4F1E2",
"_  c #F4EEDC",
"S  c #C59D2B",
"&. c #7A5800",
"q  c #A16200",
"o  c #755100",
"E  c #C8A430",
"2  c #C8A73F",
"N  c #FADE7C",
"=  c #7F5600",
"c  c #E3D0A1",
"O  c #8C6E17",
"}  c #C3AF6C",
"i  c #FADB79",
"+  c #B4A062",
"H  c #FAE49B",
"*  c #C8B67D",
"B  c #FAE49C",
"D  c #C8A444",
"W  c #DCC686",
"b  c #EBDEB3",
"f  c #DCC689",
"1  c #C6A436",
" . c #AD9648",
"@  c #BCA55C",
"6  c #F3DD95",
"~  c #EEE5C1",
"T  c #EEE5C3",
"m  c #F3ECD2",
"`  c #DFCA97",
"X  c #8D6F18",
"0  c #C9A539",
"'  c #DFCA9B",
"-  c #BAA257",
",. c #B09D60",
"%. c #C4B682",
"A  c #E7D8A5",
":  c #B3952D",
"z  c #F9DF80",
"O. c #B8A565",
"#  c #7E5400",
"7  c #F4DB89",
"[  c #D1C28F",
"5  c #CFA10C",
"8  c #B38000",
"J  c #F9EEC4",
";. c #724F00",
">  c #B69936",
"p  c #F9F1D2",
"a  c #CFB049",
">. c #896C15",
"o. c #AC9445",
"w  c #AE7900",
"{  c #C0AA65",
"^  c #EDE3C0",
/* pixels */
"          . X o o O +           ",
"      @ # $ %     & * = -       ",
"    ; :                 > ,     ",
"  < 1                     2 3   ",
"  4                         5   ",
"6 7     8 9 0 q   w e r t   y u ",
"i p     a s d f   g h   j   k l ",
"z       x c v b   n m   M     N ",
"B       V C Z A   S D F G     H ",
"J K     L P       I U       Y J ",
"T R     E W       Q !       ~ ^ ",
"  /     ( )     _ ` '       ]   ",
"  [ {                     } |   ",
"     ...                X.o.    ",
"      O.+.@.#.    $.%.&.*.      ",
"          =.-.;.:.>.,.          "
};
